STARTFONT 2.1
FONT -ucw.cz-PsevdoAzbuka-Medium-R-Normal--12-120-72-72-C-72-iso8859-2
SIZE 12 72 72
FONTBOUNDINGBOX 8 14 0 -3
STARTPROPERTIES 16
POINT_SIZE 120
PIXEL_SIZE 12
RESOLUTION_X 72
RESOLUTION_Y 72
FONT_ASCENT 11
FONT_DESCENT 3
AVERAGE_WIDTH 72
SPACING "C"
CHARSET_ENCODING "2"
CHARSET_REGISTRY "iso8859"
FAMILY_NAME "PsevdoAzbuka"
FOUNDRY "ucw.cz"
SETWIDTH_NAME "Normal"
SLANT "R"
WEIGHT_NAME "Medium"
_GBDFED_INFO "Edited with gbdfed 1.5."
ENDPROPERTIES
CHARS 199
STARTCHAR char0
ENCODING 0
SWIDTH 666 0
DWIDTH 8 0
BBX 8 14 0 -3
BITMAP
FF
FF
FF
FF
FF
FF
FF
FF
FF
FF
FF
00
00
00
ENDCHAR
STARTCHAR char1
ENCODING 1
SWIDTH 666 0
DWIDTH 8 0
BBX 8 14 0 -3
BITMAP
00
00
18
3C
7E
FF
7E
3C
18
00
00
00
00
00
ENDCHAR
STARTCHAR char2
ENCODING 2
SWIDTH 666 0
DWIDTH 8 0
BBX 8 14 0 -3
BITMAP
AA
55
AA
55
AA
55
AA
55
AA
55
AA
00
00
00
ENDCHAR
STARTCHAR char11
ENCODING 11
SWIDTH 666 0
DWIDTH 8 0
BBX 8 14 0 -3
BITMAP
10
10
10
10
10
10
E0
00
00
00
00
00
00
00
ENDCHAR
STARTCHAR char12
ENCODING 12
SWIDTH 666 0
DWIDTH 8 0
BBX 8 14 0 -3
BITMAP
00
00
00
00
00
00
E0
10
10
10
10
10
10
10
ENDCHAR
STARTCHAR char13
ENCODING 13
SWIDTH 666 0
DWIDTH 8 0
BBX 8 14 0 -3
BITMAP
00
00
00
00
00
00
0F
10
10
10
10
10
10
10
ENDCHAR
STARTCHAR char14
ENCODING 14
SWIDTH 666 0
DWIDTH 8 0
BBX 8 14 0 -3
BITMAP
10
10
10
10
10
10
0F
00
00
00
00
00
00
00
ENDCHAR
STARTCHAR char15
ENCODING 15
SWIDTH 666 0
DWIDTH 8 0
BBX 8 14 0 -3
BITMAP
10
10
10
10
10
10
EF
10
10
10
10
10
10
10
ENDCHAR
STARTCHAR char16
ENCODING 16
SWIDTH 666 0
DWIDTH 8 0
BBX 8 14 0 -3
BITMAP
00
00
FF
00
00
00
00
00
00
00
00
00
00
00
ENDCHAR
STARTCHAR char17
ENCODING 17
SWIDTH 666 0
DWIDTH 8 0
BBX 8 14 0 -3
BITMAP
00
00
00
00
FF
00
00
00
00
00
00
00
00
00
ENDCHAR
STARTCHAR char18
ENCODING 18
SWIDTH 666 0
DWIDTH 8 0
BBX 8 14 0 -3
BITMAP
00
00
00
00
00
00
FF
00
00
00
00
00
00
00
ENDCHAR
STARTCHAR char19
ENCODING 19
SWIDTH 666 0
DWIDTH 8 0
BBX 8 14 0 -3
BITMAP
00
00
00
00
00
00
00
00
FF
00
00
00
00
00
ENDCHAR
STARTCHAR char20
ENCODING 20
SWIDTH 666 0
DWIDTH 8 0
BBX 8 14 0 -3
BITMAP
00
00
00
00
00
00
00
00
00
00
FF
00
00
00
ENDCHAR
STARTCHAR char21
ENCODING 21
SWIDTH 666 0
DWIDTH 8 0
BBX 8 14 0 -3
BITMAP
10
10
10
10
10
10
0F
10
10
10
10
10
10
10
ENDCHAR
STARTCHAR char22
ENCODING 22
SWIDTH 666 0
DWIDTH 8 0
BBX 8 14 0 -3
BITMAP
10
10
10
10
10
10
E0
10
10
10
10
10
10
10
ENDCHAR
STARTCHAR char23
ENCODING 23
SWIDTH 666 0
DWIDTH 8 0
BBX 8 14 0 -3
BITMAP
10
10
10
10
10
10
EF
00
00
00
00
00
00
00
ENDCHAR
STARTCHAR char24
ENCODING 24
SWIDTH 666 0
DWIDTH 8 0
BBX 8 14 0 -3
BITMAP
00
00
00
00
00
00
EF
10
10
10
10
10
10
10
ENDCHAR
STARTCHAR char25
ENCODING 25
SWIDTH 666 0
DWIDTH 8 0
BBX 8 14 0 -3
BITMAP
10
10
10
10
10
10
10
10
10
10
10
10
10
10
ENDCHAR
STARTCHAR space
ENCODING 32
SWIDTH 666 0
DWIDTH 8 0
BBX 8 14 0 -3
BITMAP
00
00
00
00
00
00
00
00
00
00
00
00
00
00
ENDCHAR
STARTCHAR exclam
ENCODING 33
SWIDTH 666 0
DWIDTH 8 0
BBX 8 14 0 -3
BITMAP
00
00
10
10
10
10
10
10
10
00
10
00
00
00
ENDCHAR
STARTCHAR char34
ENCODING 34
SWIDTH 666 0
DWIDTH 8 0
BBX 8 14 0 -3
BITMAP
00
00
6C
24
24
48
00
00
00
00
00
00
00
00
ENDCHAR
STARTCHAR hash
ENCODING 35
SWIDTH 666 0
DWIDTH 8 0
BBX 8 14 0 -3
BITMAP
00
00
00
14
14
7E
28
FC
50
50
00
00
00
00
ENDCHAR
STARTCHAR dolar
ENCODING 36
SWIDTH 666 0
DWIDTH 8 0
BBX 8 14 0 -3
BITMAP
00
00
10
7C
92
90
7C
12
92
7C
10
00
00
00
ENDCHAR
STARTCHAR char37
ENCODING 37
SWIDTH 666 0
DWIDTH 8 0
BBX 8 14 0 -3
BITMAP
00
00
60
92
94
68
10
2C
52
92
0C
00
00
00
ENDCHAR
STARTCHAR amp
ENCODING 38
SWIDTH 666 0
DWIDTH 8 0
BBX 8 14 0 -3
BITMAP
00
00
30
48
48
30
50
8A
84
8A
70
00
00
00
ENDCHAR
STARTCHAR char39
ENCODING 39
SWIDTH 666 0
DWIDTH 8 0
BBX 8 14 0 -3
BITMAP
00
00
30
10
10
20
00
00
00
00
00
00
00
00
ENDCHAR
STARTCHAR char40
ENCODING 40
SWIDTH 666 0
DWIDTH 8 0
BBX 8 14 0 -3
BITMAP
00
00
10
20
20
20
20
20
20
20
10
00
00
00
ENDCHAR
STARTCHAR char41
ENCODING 41
SWIDTH 666 0
DWIDTH 8 0
BBX 8 14 0 -3
BITMAP
00
00
20
10
10
10
10
10
10
10
20
00
00
00
ENDCHAR
STARTCHAR asterisk
ENCODING 42
SWIDTH 666 0
DWIDTH 8 0
BBX 8 14 0 -3
BITMAP
00
00
00
10
54
38
10
38
54
10
00
00
00
00
ENDCHAR
STARTCHAR plus
ENCODING 43
SWIDTH 666 0
DWIDTH 8 0
BBX 8 14 0 -3
BITMAP
00
00
00
10
10
10
7C
10
10
10
00
00
00
00
ENDCHAR
STARTCHAR char44
ENCODING 44
SWIDTH 666 0
DWIDTH 8 0
BBX 8 14 0 -3
BITMAP
00
00
00
00
00
00
00
00
00
30
10
20
00
00
ENDCHAR
STARTCHAR char45
ENCODING 45
SWIDTH 666 0
DWIDTH 8 0
BBX 8 14 0 -3
BITMAP
00
00
00
00
00
00
7C
00
00
00
00
00
00
00
ENDCHAR
STARTCHAR char46
ENCODING 46
SWIDTH 666 0
DWIDTH 8 0
BBX 8 14 0 -3
BITMAP
00
00
00
00
00
00
00
00
00
30
30
00
00
00
ENDCHAR
STARTCHAR char47
ENCODING 47
SWIDTH 666 0
DWIDTH 8 0
BBX 8 14 0 -3
BITMAP
00
00
04
08
08
10
10
20
20
40
40
00
00
00
ENDCHAR
STARTCHAR char48
ENCODING 48
SWIDTH 666 0
DWIDTH 8 0
BBX 8 14 0 -3
BITMAP
00
00
38
44
44
4C
54
64
44
44
38
00
00
00
ENDCHAR
STARTCHAR char49
ENCODING 49
SWIDTH 666 0
DWIDTH 8 0
BBX 8 14 0 -3
BITMAP
00
00
10
30
10
10
10
10
10
10
38
00
00
00
ENDCHAR
STARTCHAR char50
ENCODING 50
SWIDTH 666 0
DWIDTH 8 0
BBX 8 14 0 -3
BITMAP
00
00
38
44
44
04
08
10
20
40
7C
00
00
00
ENDCHAR
STARTCHAR char51
ENCODING 51
SWIDTH 666 0
DWIDTH 8 0
BBX 8 14 0 -3
BITMAP
00
00
38
44
04
04
18
04
04
44
38
00
00
00
ENDCHAR
STARTCHAR char52
ENCODING 52
SWIDTH 666 0
DWIDTH 8 0
BBX 8 14 0 -3
BITMAP
00
00
08
18
28
28
48
7C
08
08
08
00
00
00
ENDCHAR
STARTCHAR char53
ENCODING 53
SWIDTH 666 0
DWIDTH 8 0
BBX 8 14 0 -3
BITMAP
00
00
7C
40
40
78
04
04
04
44
38
00
00
00
ENDCHAR
STARTCHAR char54
ENCODING 54
SWIDTH 666 0
DWIDTH 8 0
BBX 8 14 0 -3
BITMAP
00
00
38
44
40
40
78
44
44
44
38
00
00
00
ENDCHAR
STARTCHAR char55
ENCODING 55
SWIDTH 666 0
DWIDTH 8 0
BBX 8 14 0 -3
BITMAP
00
00
7C
04
04
08
08
08
10
10
10
00
00
00
ENDCHAR
STARTCHAR char56
ENCODING 56
SWIDTH 666 0
DWIDTH 8 0
BBX 8 14 0 -3
BITMAP
00
00
38
44
44
44
38
44
44
44
38
00
00
00
ENDCHAR
STARTCHAR char57
ENCODING 57
SWIDTH 666 0
DWIDTH 8 0
BBX 8 14 0 -3
BITMAP
00
00
38
44
44
44
3C
04
04
44
38
00
00
00
ENDCHAR
STARTCHAR char58
ENCODING 58
SWIDTH 666 0
DWIDTH 8 0
BBX 8 14 0 -3
BITMAP
00
00
00
00
18
18
00
00
18
18
00
00
00
00
ENDCHAR
STARTCHAR char59
ENCODING 59
SWIDTH 666 0
DWIDTH 8 0
BBX 8 14 0 -3
BITMAP
00
00
00
00
18
18
00
00
18
08
10
00
00
00
ENDCHAR
STARTCHAR char60
ENCODING 60
SWIDTH 666 0
DWIDTH 8 0
BBX 8 14 0 -3
BITMAP
00
00
00
08
10
20
40
20
10
08
00
00
00
00
ENDCHAR
STARTCHAR char61
ENCODING 61
SWIDTH 666 0
DWIDTH 8 0
BBX 8 14 0 -3
BITMAP
00
00
00
00
00
FC
00
00
FC
00
00
00
00
00
ENDCHAR
STARTCHAR char62
ENCODING 62
SWIDTH 666 0
DWIDTH 8 0
BBX 8 14 0 -3
BITMAP
00
00
00
40
20
10
08
10
20
40
00
00
00
00
ENDCHAR
STARTCHAR char63
ENCODING 63
SWIDTH 666 0
DWIDTH 8 0
BBX 8 14 0 -3
BITMAP
00
00
7C
82
82
02
0C
10
10
00
10
00
00
00
ENDCHAR
STARTCHAR char64
ENCODING 64
SWIDTH 666 0
DWIDTH 8 0
BBX 8 14 0 -3
BITMAP
00
00
38
44
9A
A6
A2
A6
98
42
3C
00
00
00
ENDCHAR
STARTCHAR A
ENCODING 65
SWIDTH 666 0
DWIDTH 8 0
BBX 8 14 0 -3
BITMAP
00
00
30
48
48
84
84
FC
84
84
84
00
00
00
ENDCHAR
STARTCHAR B
ENCODING 66
SWIDTH 666 0
DWIDTH 8 0
BBX 8 14 0 -3
BITMAP
00
00
FC
80
80
80
F8
84
84
84
F8
00
00
00
ENDCHAR
STARTCHAR C
ENCODING 67
SWIDTH 666 0
DWIDTH 8 0
BBX 8 14 0 -3
BITMAP
00
00
84
84
84
84
84
84
84
84
FE
02
02
00
ENDCHAR
STARTCHAR D
ENCODING 68
SWIDTH 666 0
DWIDTH 8 0
BBX 8 14 0 -3
BITMAP
00
00
7C
44
44
44
44
44
44
84
FE
82
00
00
ENDCHAR
STARTCHAR E
ENCODING 69
SWIDTH 666 0
DWIDTH 8 0
BBX 8 14 0 -3
BITMAP
00
00
38
44
82
02
1E
02
82
44
38
00
00
00
ENDCHAR
STARTCHAR F
ENCODING 70
SWIDTH 666 0
DWIDTH 8 0
BBX 8 14 0 -3
BITMAP
00
00
10
7C
92
92
92
92
92
7C
10
00
00
00
ENDCHAR
STARTCHAR G
ENCODING 71
SWIDTH 666 0
DWIDTH 8 0
BBX 8 14 0 -3
BITMAP
00
00
FC
80
80
80
80
80
80
80
80
00
00
00
ENDCHAR
STARTCHAR char72
ENCODING 72
SWIDTH 666 0
DWIDTH 8 0
BBX 8 14 0 -3
BITMAP
00
00
82
82
82
82
FE
82
82
82
82
00
00
00
ENDCHAR
STARTCHAR I
ENCODING 73
SWIDTH 666 0
DWIDTH 8 0
BBX 8 14 0 -3
BITMAP
00
00
84
8C
8C
94
A4
A4
C4
C4
84
00
00
00
ENDCHAR
STARTCHAR J
ENCODING 74
SWIDTH 666 0
DWIDTH 8 0
BBX 8 14 0 -3
BITMAP
48
30
84
8C
8C
94
A4
A4
C4
C4
84
00
00
00
ENDCHAR
STARTCHAR K
ENCODING 75
SWIDTH 666 0
DWIDTH 8 0
BBX 8 14 0 -3
BITMAP
00
00
8C
90
A0
C0
C0
A0
90
88
84
00
00
00
ENDCHAR
STARTCHAR L
ENCODING 76
SWIDTH 666 0
DWIDTH 8 0
BBX 8 14 0 -3
BITMAP
00
00
7C
44
44
44
44
44
44
44
84
00
00
00
ENDCHAR
STARTCHAR M
ENCODING 77
SWIDTH 666 0
DWIDTH 8 0
BBX 8 14 0 -3
BITMAP
00
00
84
CC
B4
84
84
84
84
84
84
00
00
00
ENDCHAR
STARTCHAR N
ENCODING 78
SWIDTH 666 0
DWIDTH 8 0
BBX 8 14 0 -3
BITMAP
00
00
84
84
84
84
FC
84
84
84
84
00
00
00
ENDCHAR
STARTCHAR O
ENCODING 79
SWIDTH 666 0
DWIDTH 8 0
BBX 8 14 0 -3
BITMAP
00
00
78
84
84
84
84
84
84
84
78
00
00
00
ENDCHAR
STARTCHAR P
ENCODING 80
SWIDTH 666 0
DWIDTH 8 0
BBX 8 14 0 -3
BITMAP
00
00
FC
84
84
84
84
84
84
84
84
00
00
00
ENDCHAR
STARTCHAR Q
ENCODING 81
SWIDTH 666 0
DWIDTH 8 0
BBX 8 14 0 -3
BITMAP
00
00
78
84
84
84
84
84
94
88
74
00
00
00
ENDCHAR
STARTCHAR R
ENCODING 82
SWIDTH 666 0
DWIDTH 8 0
BBX 8 14 0 -3
BITMAP
00
00
F8
84
84
84
F8
80
80
80
80
00
00
00
ENDCHAR
STARTCHAR S
ENCODING 83
SWIDTH 666 0
DWIDTH 8 0
BBX 8 14 0 -3
BITMAP
00
00
78
84
80
80
80
80
80
84
78
00
00
00
ENDCHAR
STARTCHAR T
ENCODING 84
SWIDTH 666 0
DWIDTH 8 0
BBX 8 14 0 -3
BITMAP
00
00
7C
10
10
10
10
10
10
10
10
00
00
00
ENDCHAR
STARTCHAR U
ENCODING 85
SWIDTH 666 0
DWIDTH 8 0
BBX 8 14 0 -3
BITMAP
00
00
84
84
48
48
30
10
20
20
C0
00
00
00
ENDCHAR
STARTCHAR V
ENCODING 86
SWIDTH 666 0
DWIDTH 8 0
BBX 8 14 0 -3
BITMAP
00
00
F8
84
84
84
F8
84
84
84
F8
00
00
00
ENDCHAR
STARTCHAR W
ENCODING 87
SWIDTH 666 0
DWIDTH 8 0
BBX 8 14 0 -3
BITMAP
00
00
82
82
82
82
82
54
54
54
28
00
00
00
ENDCHAR
STARTCHAR X
ENCODING 88
SWIDTH 666 0
DWIDTH 8 0
BBX 8 14 0 -3
BITMAP
00
00
44
44
28
28
10
28
28
44
44
00
00
00
ENDCHAR
STARTCHAR Y
ENCODING 89
SWIDTH 666 0
DWIDTH 8 0
BBX 8 14 0 -3
BITMAP
00
00
82
82
82
82
F2
8A
8A
8A
F2
00
00
00
ENDCHAR
STARTCHAR Z
ENCODING 90
SWIDTH 666 0
DWIDTH 8 0
BBX 8 14 0 -3
BITMAP
00
00
78
84
84
04
38
04
84
84
78
00
00
00
ENDCHAR
STARTCHAR bracketleft
ENCODING 91
SWIDTH 666 0
DWIDTH 8 0
BBX 8 14 0 -3
BITMAP
00
00
30
20
20
20
20
20
20
20
30
00
00
00
ENDCHAR
STARTCHAR backslash
ENCODING 92
SWIDTH 666 0
DWIDTH 8 0
BBX 8 14 0 -3
BITMAP
00
00
40
20
20
10
10
08
08
04
04
00
00
00
ENDCHAR
STARTCHAR char93
ENCODING 93
SWIDTH 666 0
DWIDTH 8 0
BBX 8 14 0 -3
BITMAP
00
00
30
10
10
10
10
10
10
10
30
00
00
00
ENDCHAR
STARTCHAR char
ENCODING 94
SWIDTH 666 0
DWIDTH 8 0
BBX 8 14 0 -3
BITMAP
00
00
10
28
44
00
00
00
00
00
00
00
00
00
ENDCHAR
STARTCHAR underscore
ENCODING 95
SWIDTH 666 0
DWIDTH 8 0
BBX 8 14 0 -3
BITMAP
00
00
00
00
00
00
00
00
00
00
FE
00
00
00
ENDCHAR
STARTCHAR char96
ENCODING 96
SWIDTH 666 0
DWIDTH 8 0
BBX 8 14 0 -3
BITMAP
00
00
20
20
10
00
00
00
00
00
00
00
00
00
ENDCHAR
STARTCHAR a
ENCODING 97
SWIDTH 666 0
DWIDTH 8 0
BBX 8 14 0 -3
BITMAP
00
00
00
00
78
84
04
7C
84
84
7A
00
00
00
ENDCHAR
STARTCHAR b
ENCODING 98
SWIDTH 666 0
DWIDTH 8 0
BBX 8 14 0 -3
BITMAP
00
04
78
80
F8
84
84
84
84
84
78
00
00
00
ENDCHAR
STARTCHAR c
ENCODING 99
SWIDTH 666 0
DWIDTH 8 0
BBX 8 14 0 -3
BITMAP
00
00
00
00
84
84
84
84
84
84
FE
02
02
00
ENDCHAR
STARTCHAR d
ENCODING 100
SWIDTH 666 0
DWIDTH 8 0
BBX 8 14 0 -3
BITMAP
00
00
00
00
7C
44
44
44
44
84
FE
82
82
00
ENDCHAR
STARTCHAR e
ENCODING 101
SWIDTH 666 0
DWIDTH 8 0
BBX 8 14 0 -3
BITMAP
00
00
00
00
78
84
04
3C
04
84
78
00
00
00
ENDCHAR
STARTCHAR f
ENCODING 102
SWIDTH 666 0
DWIDTH 8 0
BBX 8 14 0 -3
BITMAP
00
00
00
10
10
7C
92
92
92
92
7C
10
10
00
ENDCHAR
STARTCHAR g
ENCODING 103
SWIDTH 666 0
DWIDTH 8 0
BBX 8 14 0 -3
BITMAP
00
00
00
00
F8
80
80
80
80
80
80
00
00
00
ENDCHAR
STARTCHAR h
ENCODING 104
SWIDTH 666 0
DWIDTH 8 0
BBX 8 14 0 -3
BITMAP
00
00
80
80
B8
C4
84
84
84
84
84
00
00
00
ENDCHAR
STARTCHAR char105
ENCODING 105
SWIDTH 666 0
DWIDTH 8 0
BBX 8 14 0 -3
BITMAP
00
00
00
00
84
84
8C
94
A4
C4
84
00
00
00
ENDCHAR
STARTCHAR j
ENCODING 106
SWIDTH 666 0
DWIDTH 8 0
BBX 8 14 0 -3
BITMAP
00
00
48
30
84
84
8C
94
A4
C4
84
00
00
00
ENDCHAR
STARTCHAR k
ENCODING 107
SWIDTH 666 0
DWIDTH 8 0
BBX 8 14 0 -3
BITMAP
00
00
80
80
8C
90
A0
E0
90
88
84
00
00
00
ENDCHAR
STARTCHAR l
ENCODING 108
SWIDTH 666 0
DWIDTH 8 0
BBX 8 14 0 -3
BITMAP
00
00
00
00
7C
44
44
44
44
44
84
00
00
00
ENDCHAR
STARTCHAR m
ENCODING 109
SWIDTH 666 0
DWIDTH 8 0
BBX 8 14 0 -3
BITMAP
00
00
00
00
84
CC
B4
84
84
84
84
00
00
00
ENDCHAR
STARTCHAR n
ENCODING 110
SWIDTH 666 0
DWIDTH 8 0
BBX 8 14 0 -3
BITMAP
00
00
00
00
84
84
84
FC
84
84
84
00
00
00
ENDCHAR
STARTCHAR o
ENCODING 111
SWIDTH 666 0
DWIDTH 8 0
BBX 8 14 0 -3
BITMAP
00
00
00
00
78
84
84
84
84
84
78
00
00
00
ENDCHAR
STARTCHAR p
ENCODING 112
SWIDTH 666 0
DWIDTH 8 0
BBX 8 14 0 -3
BITMAP
00
00
00
00
FC
84
84
84
84
84
84
00
00
00
ENDCHAR
STARTCHAR q
ENCODING 113
SWIDTH 666 0
DWIDTH 8 0
BBX 8 14 0 -3
BITMAP
00
00
00
00
74
8C
84
84
84
8C
74
04
04
04
ENDCHAR
STARTCHAR r
ENCODING 114
SWIDTH 666 0
DWIDTH 8 0
BBX 8 14 0 -3
BITMAP
00
00
00
00
B8
C4
84
84
84
C4
B8
80
80
80
ENDCHAR
STARTCHAR s
ENCODING 115
SWIDTH 666 0
DWIDTH 8 0
BBX 8 14 0 -3
BITMAP
00
00
00
00
78
84
80
80
80
84
78
00
00
00
ENDCHAR
STARTCHAR t
ENCODING 116
SWIDTH 666 0
DWIDTH 8 0
BBX 8 14 0 -3
BITMAP
00
00
00
00
7C
10
10
10
10
10
10
00
00
00
ENDCHAR
STARTCHAR u
ENCODING 117
SWIDTH 666 0
DWIDTH 8 0
BBX 8 14 0 -3
BITMAP
00
00
00
00
84
84
84
48
48
30
10
20
20
C0
ENDCHAR
STARTCHAR v
ENCODING 118
SWIDTH 666 0
DWIDTH 8 0
BBX 8 14 0 -3
BITMAP
00
00
00
00
F8
84
84
F8
84
84
F8
00
00
00
ENDCHAR
STARTCHAR w
ENCODING 119
SWIDTH 666 0
DWIDTH 8 0
BBX 8 14 0 -3
BITMAP
00
00
00
00
82
92
92
92
92
92
6C
00
00
00
ENDCHAR
STARTCHAR x
ENCODING 120
SWIDTH 666 0
DWIDTH 8 0
BBX 8 14 0 -3
BITMAP
00
00
00
00
82
44
28
10
28
44
82
00
00
00
ENDCHAR
STARTCHAR y
ENCODING 121
SWIDTH 666 0
DWIDTH 8 0
BBX 8 14 0 -3
BITMAP
00
00
00
00
82
82
82
F2
8A
8A
F2
00
00
00
ENDCHAR
STARTCHAR z
ENCODING 122
SWIDTH 666 0
DWIDTH 8 0
BBX 8 14 0 -3
BITMAP
00
00
00
00
78
84
04
38
04
84
78
00
00
00
ENDCHAR
STARTCHAR braceleft
ENCODING 123
SWIDTH 666 0
DWIDTH 8 0
BBX 8 14 0 -3
BITMAP
00
00
18
20
20
10
20
10
20
20
18
00
00
00
ENDCHAR
STARTCHAR bar
ENCODING 124
SWIDTH 666 0
DWIDTH 8 0
BBX 8 14 0 -3
BITMAP
00
00
10
10
10
10
10
10
10
10
10
00
00
00
ENDCHAR
STARTCHAR braceright
ENCODING 125
SWIDTH 666 0
DWIDTH 8 0
BBX 8 14 0 -3
BITMAP
00
00
30
08
08
10
08
10
08
08
30
00
00
00
ENDCHAR
STARTCHAR tilda
ENCODING 126
SWIDTH 666 0
DWIDTH 8 0
BBX 8 14 0 -3
BITMAP
00
00
00
00
00
60
92
0C
00
00
00
00
00
00
ENDCHAR
STARTCHAR Aogonek
ENCODING 161
SWIDTH 666 0
DWIDTH 8 0
BBX 8 14 0 -3
BITMAP
00
00
30
48
48
84
84
FC
84
84
84
00
00
00
ENDCHAR
STARTCHAR Lslash
ENCODING 163
SWIDTH 666 0
DWIDTH 8 0
BBX 8 14 0 -3
BITMAP
00
00
40
40
50
60
40
C0
40
40
7E
00
00
00
ENDCHAR
STARTCHAR currency
ENCODING 164
SWIDTH 666 0
DWIDTH 8 0
BBX 8 14 0 -3
BITMAP
00
00
2D
12
21
21
12
2D
00
00
00
00
00
00
ENDCHAR
STARTCHAR Lcaron
ENCODING 165
SWIDTH 666 0
DWIDTH 8 0
BBX 8 14 0 -3
BITMAP
30
10
A0
80
80
80
80
80
80
80
FC
00
00
00
ENDCHAR
STARTCHAR Sacute
ENCODING 166
SWIDTH 666 0
DWIDTH 8 0
BBX 8 14 0 -3
BITMAP
10
20
00
78
84
80
78
04
04
84
78
00
00
00
ENDCHAR
STARTCHAR section
ENCODING 167
SWIDTH 666 0
DWIDTH 8 0
BBX 8 14 0 -3
BITMAP
00
00
0E
11
08
14
12
09
05
02
11
0E
00
00
ENDCHAR
STARTCHAR Scaron
ENCODING 169
SWIDTH 666 0
DWIDTH 8 0
BBX 8 14 0 -3
BITMAP
48
30
00
78
84
80
78
04
04
84
78
00
00
00
ENDCHAR
STARTCHAR Scedilla
ENCODING 170
SWIDTH 666 0
DWIDTH 8 0
BBX 8 14 0 -3
BITMAP
00
00
78
84
80
80
78
04
04
84
78
20
20
10
ENDCHAR
STARTCHAR Tcaron
ENCODING 171
SWIDTH 666 0
DWIDTH 8 0
BBX 8 14 0 -3
BITMAP
28
10
00
7C
10
10
10
10
10
10
10
00
00
00
ENDCHAR
STARTCHAR Zacute
ENCODING 172
SWIDTH 666 0
DWIDTH 8 0
BBX 8 14 0 -3
BITMAP
08
10
00
7C
04
08
10
20
40
40
7C
00
00
00
ENDCHAR
STARTCHAR Zcaron
ENCODING 174
SWIDTH 666 0
DWIDTH 8 0
BBX 8 14 0 -3
BITMAP
28
10
00
7C
04
08
10
20
40
40
7C
00
00
00
ENDCHAR
STARTCHAR Zdotaccent
ENCODING 175
SWIDTH 666 0
DWIDTH 8 0
BBX 8 14 0 -3
BITMAP
00
10
00
7C
04
08
10
20
40
40
7C
00
00
00
ENDCHAR
STARTCHAR degree
ENCODING 176
SWIDTH 666 0
DWIDTH 8 0
BBX 8 14 0 -3
BITMAP
30
48
48
30
00
00
00
00
00
00
00
00
00
00
ENDCHAR
STARTCHAR aogonek
ENCODING 177
SWIDTH 666 0
DWIDTH 8 0
BBX 8 14 0 -3
BITMAP
00
00
00
00
78
84
04
7C
84
84
7A
20
20
10
ENDCHAR
STARTCHAR lslash
ENCODING 179
SWIDTH 666 0
DWIDTH 8 0
BBX 8 14 0 -3
BITMAP
00
00
30
14
18
10
30
50
10
10
7C
00
00
00
ENDCHAR
STARTCHAR acute
ENCODING 180
SWIDTH 666 0
DWIDTH 8 0
BBX 8 14 0 -3
BITMAP
08
10
00
00
00
00
00
00
00
00
00
00
00
00
ENDCHAR
STARTCHAR lcaron
ENCODING 181
SWIDTH 666 0
DWIDTH 8 0
BBX 8 14 0 -3
BITMAP
0C
04
38
10
10
10
10
10
10
10
7C
00
00
00
ENDCHAR
STARTCHAR sacute
ENCODING 182
SWIDTH 666 0
DWIDTH 8 0
BBX 8 14 0 -3
BITMAP
00
10
20
00
78
84
80
78
04
84
78
00
00
00
ENDCHAR
STARTCHAR caron
ENCODING 183
SWIDTH 666 0
DWIDTH 8 0
BBX 8 14 0 -3
BITMAP
24
18
00
00
00
00
00
00
00
00
00
00
00
00
ENDCHAR
STARTCHAR scaron
ENCODING 185
SWIDTH 666 0
DWIDTH 8 0
BBX 8 14 0 -3
BITMAP
00
48
30
00
78
84
80
78
04
84
78
00
00
00
ENDCHAR
STARTCHAR scedilla
ENCODING 186
SWIDTH 666 0
DWIDTH 8 0
BBX 8 14 0 -3
BITMAP
00
00
00
00
78
84
80
78
04
84
78
20
20
10
ENDCHAR
STARTCHAR tcaron
ENCODING 187
SWIDTH 666 0
DWIDTH 8 0
BBX 8 14 0 -3
BITMAP
00
0C
44
48
F0
40
40
40
40
44
38
00
00
00
ENDCHAR
STARTCHAR zacute
ENCODING 188
SWIDTH 666 0
DWIDTH 8 0
BBX 8 14 0 -3
BITMAP
00
10
20
00
FC
04
08
30
40
80
FC
00
00
00
ENDCHAR
STARTCHAR zcaron
ENCODING 190
SWIDTH 666 0
DWIDTH 8 0
BBX 8 14 0 -3
BITMAP
00
48
30
00
FC
04
08
30
40
80
FC
00
00
00
ENDCHAR
STARTCHAR zdotaccent
ENCODING 191
SWIDTH 666 0
DWIDTH 8 0
BBX 8 14 0 -3
BITMAP
00
00
30
00
FC
04
08
30
40
80
FC
00
00
00
ENDCHAR
STARTCHAR Racute
ENCODING 192
SWIDTH 666 0
DWIDTH 8 0
BBX 8 14 0 -3
BITMAP
10
20
00
F8
84
84
84
F8
90
88
84
00
00
00
ENDCHAR
STARTCHAR Aacute
ENCODING 193
SWIDTH 666 0
DWIDTH 8 0
BBX 8 14 0 -3
BITMAP
10
20
00
30
48
48
84
FC
84
84
84
00
00
00
ENDCHAR
STARTCHAR Acircumflex
ENCODING 194
SWIDTH 666 0
DWIDTH 8 0
BBX 8 14 0 -3
BITMAP
30
48
00
30
48
48
84
FC
84
84
84
00
00
00
ENDCHAR
STARTCHAR Abreve
ENCODING 195
SWIDTH 666 0
DWIDTH 8 0
BBX 8 14 0 -3
BITMAP
48
30
00
30
48
48
84
FC
84
84
84
00
00
00
ENDCHAR
STARTCHAR Adieresis
ENCODING 196
SWIDTH 666 0
DWIDTH 8 0
BBX 8 14 0 -3
BITMAP
48
00
30
48
48
84
84
FC
84
84
84
00
00
00
ENDCHAR
STARTCHAR Lacute
ENCODING 197
SWIDTH 666 0
DWIDTH 8 0
BBX 8 14 0 -3
BITMAP
20
40
00
80
80
80
80
80
80
80
FC
00
00
00
ENDCHAR
STARTCHAR Cacute
ENCODING 198
SWIDTH 666 0
DWIDTH 8 0
BBX 8 14 0 -3
BITMAP
10
20
00
78
84
80
80
80
80
84
78
00
00
00
ENDCHAR
STARTCHAR Ccedilla
ENCODING 199
SWIDTH 666 0
DWIDTH 8 0
BBX 8 14 0 -3
BITMAP
00
00
78
84
80
80
80
80
80
84
78
20
20
10
ENDCHAR
STARTCHAR Ccaron
ENCODING 200
SWIDTH 666 0
DWIDTH 8 0
BBX 8 14 0 -3
BITMAP
48
30
00
78
84
80
80
80
80
84
78
00
00
00
ENDCHAR
STARTCHAR Eacute
ENCODING 201
SWIDTH 666 0
DWIDTH 8 0
BBX 8 14 0 -3
BITMAP
10
20
00
FC
80
80
F0
80
80
80
FC
00
00
00
ENDCHAR
STARTCHAR Eogonek
ENCODING 202
SWIDTH 666 0
DWIDTH 8 0
BBX 8 14 0 -3
BITMAP
00
00
FC
80
80
80
F0
80
80
80
FC
20
20
10
ENDCHAR
STARTCHAR Edieresis
ENCODING 203
SWIDTH 666 0
DWIDTH 8 0
BBX 8 14 0 -3
BITMAP
00
48
00
FC
80
80
F0
80
80
80
FC
00
00
00
ENDCHAR
STARTCHAR Ecaron
ENCODING 204
SWIDTH 666 0
DWIDTH 8 0
BBX 8 14 0 -3
BITMAP
48
30
00
FC
80
80
F0
80
80
80
FC
00
00
00
ENDCHAR
STARTCHAR Iacute
ENCODING 205
SWIDTH 666 0
DWIDTH 8 0
BBX 8 14 0 -3
BITMAP
08
10
00
38
10
10
10
10
10
10
38
00
00
00
ENDCHAR
STARTCHAR Icircumflex
ENCODING 206
SWIDTH 666 0
DWIDTH 8 0
BBX 8 14 0 -3
BITMAP
10
28
00
38
10
10
10
10
10
10
38
00
00
00
ENDCHAR
STARTCHAR Dcaron
ENCODING 207
SWIDTH 666 0
DWIDTH 8 0
BBX 8 14 0 -3
BITMAP
48
30
00
F8
84
84
84
84
84
84
F8
00
00
00
ENDCHAR
STARTCHAR Dcroat
ENCODING 208
SWIDTH 666 0
DWIDTH 8 0
BBX 8 14 0 -3
BITMAP
00
00
F8
84
84
84
E4
84
84
84
F8
00
00
00
ENDCHAR
STARTCHAR Nacute
ENCODING 209
SWIDTH 666 0
DWIDTH 8 0
BBX 8 14 0 -3
BITMAP
08
10
00
84
C4
C4
A4
94
8C
8C
84
00
00
00
ENDCHAR
STARTCHAR Ncaron
ENCODING 210
SWIDTH 666 0
DWIDTH 8 0
BBX 8 14 0 -3
BITMAP
48
30
00
84
C4
C4
A4
94
8C
8C
84
00
00
00
ENDCHAR
STARTCHAR Oacute
ENCODING 211
SWIDTH 666 0
DWIDTH 8 0
BBX 8 14 0 -3
BITMAP
10
20
00
78
84
84
84
84
84
84
78
00
00
00
ENDCHAR
STARTCHAR Ocircumflex
ENCODING 212
SWIDTH 666 0
DWIDTH 8 0
BBX 8 14 0 -3
BITMAP
30
48
00
78
84
84
84
84
84
84
78
00
00
00
ENDCHAR
STARTCHAR Ohungarumlaut
ENCODING 213
SWIDTH 666 0
DWIDTH 8 0
BBX 8 14 0 -3
BITMAP
24
48
00
78
84
84
84
84
84
84
78
00
00
00
ENDCHAR
STARTCHAR Odieresis
ENCODING 214
SWIDTH 666 0
DWIDTH 8 0
BBX 8 14 0 -3
BITMAP
00
48
00
78
84
84
84
84
84
84
78
00
00
00
ENDCHAR
STARTCHAR Rcaron
ENCODING 216
SWIDTH 666 0
DWIDTH 8 0
BBX 8 14 0 -3
BITMAP
48
30
00
F8
84
84
84
F8
90
88
84
00
00
00
ENDCHAR
STARTCHAR Uring
ENCODING 217
SWIDTH 666 0
DWIDTH 8 0
BBX 8 14 0 -3
BITMAP
30
48
30
84
84
84
84
84
84
84
78
00
00
00
ENDCHAR
STARTCHAR Uacute
ENCODING 218
SWIDTH 666 0
DWIDTH 8 0
BBX 8 14 0 -3
BITMAP
10
20
00
84
84
84
84
84
84
84
78
00
00
00
ENDCHAR
STARTCHAR Uhungarumlaut
ENCODING 219
SWIDTH 666 0
DWIDTH 8 0
BBX 8 14 0 -3
BITMAP
24
48
00
84
84
84
84
84
84
84
78
00
00
00
ENDCHAR
STARTCHAR Udieresis
ENCODING 220
SWIDTH 666 0
DWIDTH 8 0
BBX 8 14 0 -3
BITMAP
00
48
00
84
84
84
84
84
84
84
78
00
00
00
ENDCHAR
STARTCHAR Yacute
ENCODING 221
SWIDTH 666 0
DWIDTH 8 0
BBX 8 14 0 -3
BITMAP
08
10
00
44
44
28
28
10
10
10
10
00
00
00
ENDCHAR
STARTCHAR Tcommaaccent
ENCODING 222
SWIDTH 666 0
DWIDTH 8 0
BBX 8 14 0 -3
BITMAP
00
00
F8
20
20
20
20
20
20
20
20
20
20
10
ENDCHAR
STARTCHAR germandbls
ENCODING 223
SWIDTH 666 0
DWIDTH 8 0
BBX 8 14 0 -3
BITMAP
00
00
0E
11
11
16
11
11
16
10
10
00
00
00
ENDCHAR
STARTCHAR racute
ENCODING 224
SWIDTH 666 0
DWIDTH 8 0
BBX 8 14 0 -3
BITMAP
00
08
10
00
B8
C4
80
80
80
80
80
00
00
00
ENDCHAR
STARTCHAR aacute
ENCODING 225
SWIDTH 666 0
DWIDTH 8 0
BBX 8 14 0 -3
BITMAP
00
10
20
00
78
84
04
7C
84
84
7A
00
00
00
ENDCHAR
STARTCHAR acircumflex
ENCODING 226
SWIDTH 666 0
DWIDTH 8 0
BBX 8 14 0 -3
BITMAP
00
30
48
00
78
84
04
7C
84
84
7A
00
00
00
ENDCHAR
STARTCHAR abreve
ENCODING 227
SWIDTH 666 0
DWIDTH 8 0
BBX 8 14 0 -3
BITMAP
00
48
30
00
78
84
04
7C
84
84
7A
00
00
00
ENDCHAR
STARTCHAR adieresis
ENCODING 228
SWIDTH 666 0
DWIDTH 8 0
BBX 8 14 0 -3
BITMAP
00
00
48
00
78
84
04
7C
84
84
7A
00
00
00
ENDCHAR
STARTCHAR lacute
ENCODING 229
SWIDTH 666 0
DWIDTH 8 0
BBX 8 14 0 -3
BITMAP
28
10
00
30
10
10
10
10
10
10
7C
00
00
00
ENDCHAR
STARTCHAR cacute
ENCODING 230
SWIDTH 666 0
DWIDTH 8 0
BBX 8 14 0 -3
BITMAP
00
10
20
00
78
84
80
80
80
84
78
00
00
00
ENDCHAR
STARTCHAR ccedilla
ENCODING 231
SWIDTH 666 0
DWIDTH 8 0
BBX 8 14 0 -3
BITMAP
00
00
00
00
78
84
80
80
80
84
78
20
20
10
ENDCHAR
STARTCHAR ccaron
ENCODING 232
SWIDTH 666 0
DWIDTH 8 0
BBX 8 14 0 -3
BITMAP
00
48
30
00
78
84
80
80
80
84
78
00
00
00
ENDCHAR
STARTCHAR eacute
ENCODING 233
SWIDTH 666 0
DWIDTH 8 0
BBX 8 14 0 -3
BITMAP
00
10
20
00
78
84
84
F8
80
84
78
00
00
00
ENDCHAR
STARTCHAR eogonek
ENCODING 234
SWIDTH 666 0
DWIDTH 8 0
BBX 8 14 0 -3
BITMAP
00
00
00
00
78
84
84
F8
80
84
78
20
20
10
ENDCHAR
STARTCHAR edieresis
ENCODING 235
SWIDTH 666 0
DWIDTH 8 0
BBX 8 14 0 -3
BITMAP
00
00
48
00
78
84
84
F8
80
84
78
00
00
00
ENDCHAR
STARTCHAR ecaron
ENCODING 236
SWIDTH 666 0
DWIDTH 8 0
BBX 8 14 0 -3
BITMAP
00
48
30
00
78
84
84
F8
80
84
78
00
00
00
ENDCHAR
STARTCHAR iacute
ENCODING 237
SWIDTH 666 0
DWIDTH 8 0
BBX 8 14 0 -3
BITMAP
00
08
10
00
30
10
10
10
10
10
7C
00
00
00
ENDCHAR
STARTCHAR icircumflex
ENCODING 238
SWIDTH 666 0
DWIDTH 8 0
BBX 8 14 0 -3
BITMAP
00
10
28
00
30
10
10
10
10
10
7C
00
00
00
ENDCHAR
STARTCHAR dcaron
ENCODING 239
SWIDTH 666 0
DWIDTH 8 0
BBX 8 14 0 -3
BITMAP
06
02
06
04
74
8C
84
84
84
8C
74
00
00
00
ENDCHAR
STARTCHAR dcroat
ENCODING 240
SWIDTH 666 0
DWIDTH 8 0
BBX 8 14 0 -3
BITMAP
00
04
0E
04
74
8C
84
84
84
8C
74
00
00
00
ENDCHAR
STARTCHAR nacute
ENCODING 241
SWIDTH 666 0
DWIDTH 8 0
BBX 8 14 0 -3
BITMAP
00
10
20
00
F8
84
84
84
84
84
84
00
00
00
ENDCHAR
STARTCHAR ncaron
ENCODING 242
SWIDTH 666 0
DWIDTH 8 0
BBX 8 14 0 -3
BITMAP
00
48
30
00
F8
84
84
84
84
84
84
00
00
00
ENDCHAR
STARTCHAR oacute
ENCODING 243
SWIDTH 666 0
DWIDTH 8 0
BBX 8 14 0 -3
BITMAP
00
10
20
00
78
84
84
84
84
84
78
00
00
00
ENDCHAR
STARTCHAR ocircumflex
ENCODING 244
SWIDTH 666 0
DWIDTH 8 0
BBX 8 14 0 -3
BITMAP
00
30
48
00
78
84
84
84
84
84
78
00
00
00
ENDCHAR
STARTCHAR ohungarumlaut
ENCODING 245
SWIDTH 666 0
DWIDTH 8 0
BBX 8 14 0 -3
BITMAP
00
24
48
00
78
84
84
84
84
84
78
00
00
00
ENDCHAR
STARTCHAR odieresis
ENCODING 246
SWIDTH 666 0
DWIDTH 8 0
BBX 8 14 0 -3
BITMAP
00
00
48
00
78
84
84
84
84
84
78
00
00
00
ENDCHAR
STARTCHAR rcaron
ENCODING 248
SWIDTH 666 0
DWIDTH 8 0
BBX 8 14 0 -3
BITMAP
00
48
30
00
B8
C4
80
80
80
80
80
00
00
00
ENDCHAR
STARTCHAR uring
ENCODING 249
SWIDTH 666 0
DWIDTH 8 0
BBX 8 14 0 -3
BITMAP
00
30
48
30
84
84
84
84
84
8C
74
00
00
00
ENDCHAR
STARTCHAR uacute
ENCODING 250
SWIDTH 666 0
DWIDTH 8 0
BBX 8 14 0 -3
BITMAP
00
10
20
00
84
84
84
84
84
8C
74
00
00
00
ENDCHAR
STARTCHAR uhungarumlaut
ENCODING 251
SWIDTH 666 0
DWIDTH 8 0
BBX 8 14 0 -3
BITMAP
00
24
48
00
84
84
84
84
84
8C
74
00
00
00
ENDCHAR
STARTCHAR udieresis
ENCODING 252
SWIDTH 666 0
DWIDTH 8 0
BBX 8 14 0 -3
BITMAP
00
00
48
00
84
84
84
84
84
8C
74
00
00
00
ENDCHAR
STARTCHAR y.dup1
ENCODING 253
SWIDTH 666 0
DWIDTH 8 0
BBX 8 14 0 -3
BITMAP
00
10
20
00
84
84
84
84
8C
74
04
04
08
70
ENDCHAR
STARTCHAR tcommaaccent
ENCODING 254
SWIDTH 666 0
DWIDTH 8 0
BBX 8 14 0 -3
BITMAP
00
00
40
40
F0
40
40
40
40
44
38
10
10
08
ENDCHAR
ENDFONT
